# xmcd CD database file
#
# Track frame offsets:
#	150
#	21400
#	35291
#	53656
#	72392
#	97098
#	115588
#	134885
#	155400
#	170090
#	186932
#
# Disc length: 3056 seconds
#
# Revision: 0
# Processed by: cddbd v1.5.1PL0 Copyright (c) Steve Scherf et al.
# Submitted via: CDex 1.51
#
DISCID=9e0bee0b
DTITLE=Mike Randle - Barstool Blues
DYEAR=2004
DGENRE=Blues
TTITLE0=This is the Sound
TTITLE1=All the Beautiful People (Shop on Melrose)
TTITLE2=Mornin' Run
TTITLE3=Snug Harbor
TTITLE4=City Life
TTITLE5=Glad You're Gone
TTITLE6=Blue Bonnet Drive
TTITLE7=Coctails (Duet with Lisa Jenio)
TTITLE8=Hana Sushi Theme
TTITLE9=Watersigns
TTITLE10=Orland Park
EXTD=YEAR: 2004
EXTT0=
EXTT1=
EXTT2=
EXTT3=
EXTT4=
EXTT5=
EXTT6=
EXTT7=
EXTT8=
EXTT9=
EXTT10=
PLAYORDER=
